<?xml version="1.0" encoding="UTF-8" standalone="no"?>
<!-- Created with Inkscape (http://www.inkscape.org/) -->

<svg
   width="256"
   height="256"
   viewBox="0 0 67.733334 67.733333"
   version="1.1"
   id="svg1"
   xml:space="preserve"
   inkscape:version="1.4 (86a8ad7, 2024-10-11)"
   sodipodi:docname="f35.svg"
   inkscape:export-filename="f35-plain.png"
   inkscape:export-xdpi="96"
   inkscape:export-ydpi="96"
   xmlns:inkscape="http://www.inkscape.org/namespaces/inkscape"
   xmlns:sodipodi="http://sodipodi.sourceforge.net/DTD/sodipodi-0.dtd"
   xmlns="http://www.w3.org/2000/svg"
   xmlns:svg="http://www.w3.org/2000/svg"><sodipodi:namedview
     id="namedview1"
     pagecolor="#505050"
     bordercolor="#eeeeee"
     borderopacity="1"
     inkscape:showpageshadow="0"
     inkscape:pageopacity="0"
     inkscape:pagecheckerboard="0"
     inkscape:deskcolor="#505050"
     inkscape:document-units="mm"
     inkscape:zoom="1.9477379"
     inkscape:cx="76.242291"
     inkscape:cy="123.98999"
     inkscape:window-width="1920"
     inkscape:window-height="991"
     inkscape:window-x="-9"
     inkscape:window-y="-9"
     inkscape:window-maximized="1"
     inkscape:current-layer="layer1" /><defs
     id="defs1" /><g
     inkscape:label="Layer 1"
     inkscape:groupmode="layer"
     id="layer1"><path
       style="fill:#1a1a1a;stroke-width:0.264583"
       d="m 1.2055919,26.777725 c 0,0 2.0885605,-0.543366 3.1922715,-0.696188 1.1037109,-0.152821 2.8866284,-0.203762 2.8866284,-0.203762 l 2.0376203,0.03396 4.0582599,-1.120692 c 0,0 -0.339603,-0.169801 1.120691,-0.288662 1.460294,-0.118861 1.816878,0 1.816878,0 l 6.961869,1.103711 c 0,0 0.03396,-0.03396 0.560345,0.101881 0.526385,0.135841 8.778747,2.631925 8.778747,2.631925 l 0.993341,-0.03396 0.466952,-0.263192 7.416089,-4.43607 4.38513,0.284418 2.164971,0.500915 3.175588,6.609525 8.524822,-5.547138 5.339188,1.238425 -3.701677,4.601625 1.765938,0.509405 1.799897,3.752617 1.562176,0.424505 -1.018812,0.764107 0.577326,1.341434 -1.969699,-0.373565 -3.701676,2.479106 6.350582,2.224403 -1.358414,3.922418 -5.569495,-1.324454 -3.429992,-2.818709 -3.124351,-0.118859 -2.088562,5.569495 c 0,0 -2.09446,-0.507688 -3.319153,-0.531701 -1.224693,-0.02402 -3.385915,-0.228129 -3.385915,-0.228129 l -7.439411,-6.796344 -9.057921,-1.728478 c 0,0 -2.173229,-0.612346 -3.21782,-1.008571 -1.04459,-0.396224 -2.605473,-1.152652 -2.605473,-1.152652 L 20.927838,35.456055 20.036598,34.164098 8.8976077,30.852964 5.2229543,29.48868 c 0,0 -0.4802717,-0.228129 -1.4047946,-0.792448 C 2.8936368,28.131913 1.2055919,26.777725 1.2055919,26.777725 Z"
       id="path3" /></g></svg>
